<?xml version="1.0" standalone="no"?>
<!DOCTYPE svg PUBLIC "-//W3C//DTD SVG 20010904//EN"
 "http://www.w3.org/TR/2001/REC-SVG-20010904/DTD/svg10.dtd">
<svg version="1.0" xmlns="http://www.w3.org/2000/svg"
 width="100.000000pt" height="100.000000pt" viewBox="0 0 100.000000 100.000000"
 preserveAspectRatio="xMidYMid meet">
<metadata>
Created by potrace 1.14, written by Peter Selinger 2001-2017
</metadata>
<g transform="translate(0.000000,100.000000) scale(0.100000,-0.100000)"
fill="#000000" stroke="none">
<path d="M211 911 c-15 -4 -28 -18 -34 -35 -8 -25 -5 -32 34 -72 24 -24 48
-44 54 -44 6 0 26 16 45 35 33 35 33 35 14 57 -57 67 -66 72 -113 59z"/>
<path d="M358 913 c-9 -2 -19 -11 -22 -19 -4 -10 -2 -13 7 -7 6 4 20 9 31 10
16 3 17 1 5 -14 -12 -16 -12 -17 2 -6 9 7 19 10 23 6 4 -4 4 0 1 9 -8 19 -23
26 -47 21z"/>
<path d="M487 909 c-22 -13 -22 -32 1 -53 18 -15 20 -15 35 2 10 10 17 24 17
30 0 18 -33 32 -53 21z m36 -16 c3 -5 -2 -15 -11 -23 -14 -13 -15 -12 -9 4 5
14 3 17 -8 12 -8 -3 -15 -1 -15 4 0 12 37 14 43 3z"/>
<path d="M626 905 c-27 -21 -27 -52 1 -70 19 -13 26 -13 43 -3 24 15 28 68 5
68 -8 0 -15 5 -15 10 0 14 -11 12 -34 -5z m34 -33 c0 -13 -12 -22 -22 -16 -10
6 -1 24 13 24 5 0 9 -4 9 -8z"/>
<path d="M734 844 c-61 -57 -64 -71 -21 -98 24 -15 130 89 121 119 -6 19 -22
35 -35 35 -4 0 -33 -25 -65 -56z m84 13 c2 -12 -3 -17 -17 -17 -12 0 -21 6
-21 13 0 31 32 34 38 4z"/>
<path d="M860 825 c-20 -24 -6 -28 15 -5 10 11 13 20 8 20 -6 0 -16 -7 -23
-15z"/>
<path d="M100 820 c0 -15 102 -110 117 -110 20 0 3 27 -44 71 -39 37 -73 55
-73 39z"/>
<path d="M844 780 c-21 -22 -50 -47 -64 -56 -14 -9 -3 4 24 30 27 25 45 46 40
46 -18 0 -94 -86 -94 -106 0 -42 37 -56 68 -26 10 9 29 26 43 37 19 15 18 12
-6 -15 l-30 -35 31 27 c23 22 31 38 33 70 1 23 4 45 7 49 2 4 1 10 -4 13 -5 3
-26 -13 -48 -34z"/>
<path d="M378 774 c-16 -8 -28 -22 -28 -30 0 -16 -55 -68 -74 -70 -6 -1 -16
-2 -22 -3 -20 -2 -35 -50 -22 -70 10 -16 7 -26 -15 -59 -25 -39 -25 -40 -7
-57 23 -21 35 -66 20 -75 -17 -11 17 -73 36 -66 18 7 84 -50 84 -73 0 -17 38
-41 64 -41 8 0 16 7 20 15 8 21 72 20 84 -1 8 -14 14 -15 46 -4 24 7 36 18 36
30 0 27 26 45 45 30 10 -9 15 -9 15 -1 0 6 -5 11 -12 11 -6 0 -4 8 6 19 10 11
24 17 31 15 7 -3 16 0 20 5 3 6 9 9 13 7 4 -2 8 9 9 25 1 15 -2 31 -8 34 -5 4
-7 11 -4 16 11 17 14 111 4 136 -6 17 -6 30 1 38 15 18 -8 65 -31 65 -23 0
-89 57 -89 77 0 22 -61 45 -80 29 -23 -18 -75 -19 -90 -2 -15 19 -18 19 -52 0z
m106 -81 c1 -24 6 -29 38 -34 140 -22 175 -212 53 -285 -22 -13 -55 -19 -122
-21 l-93 -3 0 155 0 155 35 0 35 0 0 -109 c0 -127 7 -141 67 -134 72 7 107 74
73 137 -13 26 -62 52 -78 42 -5 -3 -8 -31 -8 -62 1 -41 -3 -62 -16 -77 -10
-11 -20 -18 -23 -15 -3 3 1 11 10 18 12 10 15 38 15 143 0 72 3 127 6 124 4
-4 7 -19 8 -34z m-109 -1 c-6 -4 -24 -18 -40 -32 -29 -24 -29 -23 2 8 18 17
36 32 40 32 4 0 3 -3 -2 -8z m-82 -87 c-3 -9 -8 -14 -10 -11 -3 3 -2 9 2 15 9
16 15 13 8 -4z m37 -95 c0 -5 -2 -10 -4 -10 -3 0 -8 5 -11 10 -3 6 -1 10 4 10
6 0 11 -4 11 -10z m-63 -32 c-3 -7 -5 -2 -5 12 0 14 2 19 5 13 2 -7 2 -19 0
-25z m58 -18 c3 -5 1 -10 -4 -10 -6 0 -11 5 -11 10 0 6 2 10 4 10 3 0 8 -4 11
-10z m5 -107 c0 -4 -11 9 -25 29 -14 20 -25 40 -25 45 0 4 11 -9 25 -29 14
-20 25 -40 25 -45z m31 -20 c13 -16 12 -17 -3 -4 -17 13 -22 21 -14 21 2 0 10
-8 17 -17z m94 -41 c-3 -3 -11 0 -18 7 -9 10 -8 11 6 5 10 -3 15 -9 12 -12z"/>
<path d="M597 779 c7 -7 15 -10 18 -7 3 3 -2 9 -12 12 -14 6 -15 5 -6 -5z"/>
<path d="M295 710 c3 -5 8 -10 11 -10 2 0 4 5 4 10 0 6 -5 10 -11 10 -5 0 -7
-4 -4 -10z"/>
<path d="M640 709 c0 -5 5 -7 10 -4 6 3 10 8 10 11 0 2 -4 4 -10 4 -5 0 -10
-5 -10 -11z"/>
<path d="M95 693 c-19 -19 -19 -38 1 -57 26 -27 61 -16 69 22 7 37 -43 63 -70
35z m44 -17 c8 -10 8 -16 -2 -25 -16 -13 -27 -5 -27 21 0 21 13 23 29 4z"/>
<path d="M120 664 c0 -8 5 -12 10 -9 6 4 8 11 5 16 -9 14 -15 11 -15 -7z"/>
<path d="M804 638 c-15 -19 -16 -20 -1 -9 13 10 17 11 17 1 0 -10 4 -9 18 1
14 11 14 10 -2 -8 -15 -18 -16 -26 -7 -37 15 -18 42 -14 55 7 16 25 -5 52 -38
50 -15 -1 -24 2 -21 7 11 18 -2 10 -21 -12z"/>
<path d="M93 583 c9 -2 25 -2 35 0 9 3 1 5 -18 5 -19 0 -27 -2 -17 -5z"/>
<path d="M94 546 c-10 -26 1 -51 23 -54 30 -4 49 31 27 52 -19 20 -43 21 -50
2z m36 -21 c0 -8 -4 -15 -8 -15 -5 0 -9 7 -9 15 0 8 4 15 9 15 4 0 8 -7 8 -15z"/>
<path d="M796 528 c-6 -23 18 -52 38 -45 17 6 29 34 23 51 -10 25 -53 20 -61
-6z m37 -3 c4 -8 2 -17 -3 -20 -6 -4 -10 3 -10 14 0 25 6 27 13 6z"/>
<path d="M832 450 c-29 -27 -48 -50 -44 -50 4 0 30 23 57 50 27 28 47 50 44
50 -3 0 -29 -22 -57 -50z"/>
<path d="M86 459 c5 -9 54 -8 54 0 0 4 -13 7 -29 6 -16 0 -27 -3 -25 -6z"/>
<path d="M855 430 c-16 -16 -25 -30 -21 -30 8 0 22 13 45 43 22 27 7 20 -24
-13z"/>
<path d="M88 418 c0 -7 -2 -26 -3 -43 -1 -16 -3 -36 -6 -44 -8 -25 21 -23 32
3 7 14 18 26 25 26 18 0 28 38 14 55 -15 18 -59 20 -62 3z m55 -12 c4 -10 1
-13 -9 -9 -8 3 -21 0 -29 -7 -12 -10 -15 -10 -15 2 0 8 3 18 7 21 12 12 41 7
46 -7z"/>
<path d="M784 371 c3 -5 -1 -14 -9 -21 -25 -21 -18 -37 50 -106 36 -37 65 -63
65 -58 0 5 -27 36 -60 69 -33 33 -60 65 -60 72 0 8 11 18 25 25 25 11 25 28
-1 28 -8 0 -13 -4 -10 -9z"/>
<path d="M836 344 c-21 -20 -20 -27 5 -50 20 -18 21 -18 35 1 19 26 18 42 -5
55 -15 7 -23 6 -35 -6z m29 -24 c3 -5 -1 -10 -10 -10 -9 0 -13 5 -10 10 3 6 8
10 10 10 2 0 7 -4 10 -10z"/>
<path d="M116 300 c-48 -51 -53 -65 -33 -90 22 -27 106 -100 116 -100 11 0
101 86 101 96 0 4 -23 -15 -50 -40 -57 -54 -52 -54 -127 20 -24 24 -43 47 -43
53 0 6 23 33 52 61 28 27 47 50 41 50 -6 0 -31 -22 -57 -50z"/>
<path d="M137 282 c-20 -21 -37 -42 -37 -48 0 -12 72 -84 85 -84 5 0 29 19 52
42 l43 42 -42 43 c-23 24 -47 43 -53 43 -6 0 -28 -17 -48 -38z m57 -29 c-6
-22 -4 -25 10 -20 9 4 16 2 16 -2 0 -9 -24 -21 -40 -21 -7 0 -5 22 6 58 7 24
14 11 8 -15z"/>
<path d="M295 300 c3 -5 8 -10 11 -10 2 0 4 5 4 10 0 6 -5 10 -11 10 -5 0 -7
-4 -4 -10z"/>
<path d="M707 274 c-29 -27 -31 -41 -6 -57 11 -7 23 -2 43 18 27 27 27 28 9
46 -18 18 -19 18 -46 -7z"/>
<path d="M271 287 c2 -1 13 -9 24 -17 19 -14 19 -14 6 3 -7 9 -18 17 -24 17
-6 0 -8 -1 -6 -3z"/>
<path d="M855 260 c-3 -5 -2 -10 4 -10 5 0 13 5 16 10 3 6 2 10 -4 10 -5 0
-13 -4 -16 -10z"/>
<path d="M761 210 c-17 -17 -31 -34 -31 -38 0 -4 15 -23 34 -41 l34 -33 36 32
c20 18 36 36 36 42 0 10 -60 68 -71 68 -3 0 -20 -14 -38 -30z"/>
<path d="M335 200 c-34 -13 -78 -67 -71 -86 6 -15 11 -13 42 17 35 33 59 68
52 74 -2 1 -12 -1 -23 -5z"/>
<path d="M601 186 c-18 -33 0 -66 38 -66 37 0 59 37 40 69 -19 29 -62 28 -78
-3z"/>
<path d="M540 184 c-17 -9 -20 -14 -9 -14 9 0 22 7 29 15 15 18 13 18 -20 -1z"/>
<path d="M366 169 c-11 -11 -17 -21 -14 -24 2 -3 13 4 23 15 24 26 16 33 -9 9z"/>
<path d="M410 170 c-9 -6 -10 -10 -3 -10 6 0 15 5 18 10 8 12 4 12 -15 0z"/>
<path d="M447 156 c-10 -26 4 -47 27 -44 15 2 21 10 21 28 0 29 -38 41 -48 16z
m39 -7 c8 -14 -11 -33 -25 -25 -11 7 -4 36 9 36 5 0 12 -5 16 -11z"/>
<path d="M383 135 c-12 -13 -7 -25 9 -25 5 0 7 4 4 9 -4 5 -1 11 6 13 7 3 8 7
3 10 -6 3 -15 0 -22 -7z"/>
<path d="M533 127 c0 -12 1 -16 4 -9 4 10 8 10 19 1 11 -9 14 -8 14 8 0 27
-36 27 -37 0z"/>
<path d="M340 120 c-9 -6 -10 -10 -3 -10 6 0 15 5 18 10 8 12 4 12 -15 0z"/>
<path d="M710 120 c-9 -6 -10 -10 -3 -10 6 0 15 5 18 10 8 12 4 12 -15 0z"/>
</g>
</svg>
